<svg id="visual" viewBox="0 0 900 600" width="900" height="600" xmlns="http://www.w3.org/2000/svg" xmlns:xlink="http://www.w3.org/1999/xlink" version="1.1"><rect x="0" y="0" width="900" height="600" fill="#2918d9"></rect><defs><linearGradient id="grad1_0" x1="33.3%" y1="0%" x2="100%" y2="100%"><stop offset="20%" stop-color="#ff0066" stop-opacity="1"></stop><stop offset="80%" stop-color="#ff0066" stop-opacity="1"></stop></linearGradient></defs><defs><linearGradient id="grad1_1" x1="33.3%" y1="0%" x2="100%" y2="100%"><stop offset="20%" stop-color="#ff0066" stop-opacity="1"></stop><stop offset="80%" stop-color="#d0009e" stop-opacity="1"></stop></linearGradient></defs><defs><linearGradient id="grad1_2" x1="33.3%" y1="0%" x2="100%" y2="100%"><stop offset="20%" stop-color="#2918d9" stop-opacity="1"></stop><stop offset="80%" stop-color="#d0009e" stop-opacity="1"></stop></linearGradient></defs><defs><linearGradient id="grad2_0" x1="0%" y1="0%" x2="66.7%" y2="100%"><stop offset="20%" stop-color="#ff0066" stop-opacity="1"></stop><stop offset="80%" stop-color="#ff0066" stop-opacity="1"></stop></linearGradient></defs><defs><linearGradient id="grad2_1" x1="0%" y1="0%" x2="66.7%" y2="100%"><stop offset="20%" stop-color="#d0009e" stop-opacity="1"></stop><stop offset="80%" stop-color="#ff0066" stop-opacity="1"></stop></linearGradient></defs><defs><linearGradient id="grad2_2" x1="0%" y1="0%" x2="66.7%" y2="100%"><stop offset="20%" stop-color="#d0009e" stop-opacity="1"></stop><stop offset="80%" stop-color="#2918d9" stop-opacity="1"></stop></linearGradient></defs><g transform="translate(900, 0)"><path d="M0 351.5C-71.4 348.1 -142.8 344.6 -175.8 304.4C-208.7 264.3 -203.2 187.4 -226 130.5C-248.9 73.6 -300.2 36.8 -351.5 0L0 0Z" fill="#9c00bd"></path><path d="M0 234.4C-47.6 232.1 -95.2 229.7 -117.2 203C-139.1 176.2 -135.4 124.9 -150.7 87C-165.9 49.1 -200.2 24.5 -234.4 0L0 0Z" fill="#ee0080"></path><path d="M0 117.2C-23.8 116 -47.6 114.9 -58.6 101.5C-69.6 88.1 -67.7 62.5 -75.3 43.5C-83 24.5 -100.1 12.3 -117.2 0L0 0Z" fill="#ff0066"></path></g><g transform="translate(0, 600)"><path d="M0 -351.5C33.1 -293.8 66.2 -236 123.5 -213.9C180.8 -191.8 262.4 -205.5 304.4 -175.8C346.5 -146.1 349 -73 351.5 0L0 0Z" fill="#9c00bd"></path><path d="M0 -234.4C22.1 -195.8 44.1 -157.3 82.3 -142.6C120.6 -127.9 174.9 -137 203 -117.2C231 -97.4 232.7 -48.7 234.4 0L0 0Z" fill="#ee0080"></path><path d="M0 -117.2C11 -97.9 22.1 -78.7 41.2 -71.3C60.3 -63.9 87.5 -68.5 101.5 -58.6C115.5 -48.7 116.3 -24.3 117.2 0L0 0Z" fill="#ff0066"></path></g></svg>