<svg id="visual" viewBox="0 0 900 600" width="900" height="600" xmlns="http://www.w3.org/2000/svg" xmlns:xlink="http://www.w3.org/1999/xlink" version="1.1"><rect width="900" height="600" fill="#6600FF"></rect><g><g transform="translate(851 330)"><path d="M0 -106.2L92 -53.1L92 53.1L0 106.2L-92 53.1L-92 -53.1Z" fill="#009473"></path></g><g transform="translate(300 598)"><path d="M0 -97L84 -48.5L84 48.5L0 97L-84 48.5L-84 -48.5Z" fill="#009473"></path></g><g transform="translate(47 163)"><path d="M0 -81L70.1 -40.5L70.1 40.5L0 81L-70.1 40.5L-70.1 -40.5Z" fill="#009473"></path></g><g transform="translate(628 136)"><path d="M0 -41L35.5 -20.5L35.5 20.5L0 41L-35.5 20.5L-35.5 -20.5Z" fill="#009473"></path></g><g transform="translate(431 366)"><path d="M0 -83L71.9 -41.5L71.9 41.5L0 83L-71.9 41.5L-71.9 -41.5Z" fill="#009473"></path></g><g transform="translate(763 550)"><path d="M0 -52L45 -26L45 26L0 52L-45 26L-45 -26Z" fill="#009473"></path></g><g transform="translate(348 150)"><path d="M0 -78L67.5 -39L67.5 39L0 78L-67.5 39L-67.5 -39Z" fill="#009473"></path></g><g transform="translate(55 543)"><path d="M0 -96L83.1 -48L83.1 48L0 96L-83.1 48L-83.1 -48Z" fill="#009473"></path></g><g transform="translate(877 39)"><path d="M0 -57L49.4 -28.5L49.4 28.5L0 57L-49.4 28.5L-49.4 -28.5Z" fill="#009473"></path></g><g transform="translate(549 587)"><path d="M0 -70L60.6 -35L60.6 35L0 70L-60.6 35L-60.6 -35Z" fill="#009473"></path></g><g transform="translate(170 338)"><path d="M0 -105L90.9 -52.5L90.9 52.5L0 105L-90.9 52.5L-90.9 -52.5Z" fill="#009473"></path></g></g></svg>