<svg id="visual" viewBox="0 0 900 600" width="900" height="600" xmlns="http://www.w3.org/2000/svg" xmlns:xlink="http://www.w3.org/1999/xlink" version="1.1"><rect x="0" y="0" width="900" height="600" fill="#17c1d8"></rect><defs><linearGradient id="grad1_0" x1="33.3%" y1="0%" x2="100%" y2="100%"><stop offset="20%" stop-color="#500bb7" stop-opacity="1"></stop><stop offset="80%" stop-color="#500bb7" stop-opacity="1"></stop></linearGradient></defs><defs><linearGradient id="grad1_1" x1="33.3%" y1="0%" x2="100%" y2="100%"><stop offset="20%" stop-color="#500bb7" stop-opacity="1"></stop><stop offset="80%" stop-color="#0081e9" stop-opacity="1"></stop></linearGradient></defs><defs><linearGradient id="grad1_2" x1="33.3%" y1="0%" x2="100%" y2="100%"><stop offset="20%" stop-color="#17c1d8" stop-opacity="1"></stop><stop offset="80%" stop-color="#0081e9" stop-opacity="1"></stop></linearGradient></defs><defs><linearGradient id="grad2_0" x1="0%" y1="0%" x2="66.7%" y2="100%"><stop offset="20%" stop-color="#500bb7" stop-opacity="1"></stop><stop offset="80%" stop-color="#500bb7" stop-opacity="1"></stop></linearGradient></defs><defs><linearGradient id="grad2_1" x1="0%" y1="0%" x2="66.7%" y2="100%"><stop offset="20%" stop-color="#0081e9" stop-opacity="1"></stop><stop offset="80%" stop-color="#500bb7" stop-opacity="1"></stop></linearGradient></defs><defs><linearGradient id="grad2_2" x1="0%" y1="0%" x2="66.7%" y2="100%"><stop offset="20%" stop-color="#0081e9" stop-opacity="1"></stop><stop offset="80%" stop-color="#17c1d8" stop-opacity="1"></stop></linearGradient></defs><g transform="translate(900, 0)"><path d="M0 351.5C-69.9 347.2 -139.8 342.9 -175.8 304.4C-211.7 266 -213.7 193.4 -237.3 137C-260.9 80.6 -306.2 40.3 -351.5 0L0 0Z" fill="#00a3e2"></path><path d="M0 234.4C-46.6 231.5 -93.2 228.6 -117.2 203C-141.1 177.3 -142.4 129 -158.2 91.3C-173.9 53.7 -204.2 26.9 -234.4 0L0 0Z" fill="#0058de"></path><path d="M0 117.2C-23.3 115.7 -46.6 114.3 -58.6 101.5C-70.6 88.7 -71.2 64.5 -79.1 45.7C-87 26.9 -102.1 13.4 -117.2 0L0 0Z" fill="#500bb7"></path></g><g transform="translate(0, 600)"><path d="M0 -351.5C72.2 -348.5 144.5 -345.6 175.8 -304.4C207.1 -263.3 197.5 -184.1 220 -127C242.4 -69.9 297 -35 351.5 0L0 0Z" fill="#00a3e2"></path><path d="M0 -234.4C48.2 -232.4 96.3 -230.4 117.2 -203C138.1 -175.6 131.7 -122.7 146.6 -84.7C161.6 -46.6 198 -23.3 234.4 0L0 0Z" fill="#0058de"></path><path d="M0 -117.2C24.1 -116.2 48.2 -115.2 58.6 -101.5C69 -87.8 65.8 -61.4 73.3 -42.3C80.8 -23.3 99 -11.7 117.2 0L0 0Z" fill="#500bb7"></path></g></svg>